<svg width="20" height="20" viewBox="0 0 20 20" fill="none" xmlns="http://www.w3.org/2000/svg">
<path d="M14.1667 2.02478H5.83342C3.33341 2.02478 1.66675 3.69145 1.66675 6.19145V11.1915C1.66675 13.6915 3.33341 15.3581 5.83342 15.3581V17.1331C5.83342 17.7998 6.57508 18.1998 7.12508 17.8248L10.8334 15.3581H14.1667C16.6667 15.3581 18.3334 13.6915 18.3334 11.1915V6.19145C18.3334 3.69145 16.6667 2.02478 14.1667 2.02478ZM10.0001 12.1665C9.65008 12.1665 9.37508 11.8831 9.37508 11.5415C9.37508 11.1998 9.65008 10.9165 10.0001 10.9165C10.3501 10.9165 10.6251 11.1998 10.6251 11.5415C10.6251 11.8831 10.3501 12.1665 10.0001 12.1665ZM11.0501 8.70812C10.7251 8.92479 10.6251 9.06646 10.6251 9.29979V9.47479C10.6251 9.81646 10.3417 10.0998 10.0001 10.0998C9.65842 10.0998 9.37508 9.81646 9.37508 9.47479V9.29979C9.37508 8.33311 10.0834 7.85811 10.3501 7.67478C10.6584 7.46645 10.7584 7.32478 10.7584 7.10811C10.7584 6.69145 10.4167 6.34978 10.0001 6.34978C9.58342 6.34978 9.24175 6.69145 9.24175 7.10811C9.24175 7.44978 8.95842 7.73311 8.61675 7.73311C8.27508 7.73311 7.99175 7.44978 7.99175 7.10811C7.99175 5.99978 8.89175 5.09978 10.0001 5.09978C11.1084 5.09978 12.0084 5.99978 12.0084 7.10811C12.0084 8.05811 11.3084 8.53312 11.0501 8.70812Z" fill="#929EAE"/>
</svg>
