<svg width="16" height="18" viewBox="0 0 16 18" fill="none" xmlns="http://www.w3.org/2000/svg">
<path d="M11.1501 0.666626H4.85008C1.70008 0.666626 0.916748 1.50829 0.916748 4.86663V14.25C0.916748 16.4666 2.13341 16.9916 3.60842 15.4083L3.61675 15.4C4.30008 14.675 5.34175 14.7333 5.93342 15.525L6.77508 16.65C7.45008 17.5416 8.54175 17.5416 9.21675 16.65L10.0584 15.525C10.6584 14.725 11.7001 14.6666 12.3834 15.4C13.8667 16.9833 15.0751 16.4583 15.0751 14.2416V4.86663C15.0834 1.50829 14.3001 0.666626 11.1501 0.666626ZM10.2917 7.95829H5.70842C5.36675 7.95829 5.08342 7.67496 5.08342 7.33329C5.08342 6.99163 5.36675 6.70829 5.70842 6.70829H10.2917C10.6334 6.70829 10.9167 6.99163 10.9167 7.33329C10.9167 7.67496 10.6334 7.95829 10.2917 7.95829Z" fill="#1B212D"/>
</svg>
