<svg width="18" height="18" viewBox="0 0 18 18" fill="none" xmlns="http://www.w3.org/2000/svg">
<path d="M12.4917 0.666626H5.50841C2.47508 0.666626 0.666748 2.47496 0.666748 5.50829V12.4833C0.666748 15.525 2.47508 17.3333 5.50841 17.3333H12.4834C15.5167 17.3333 17.3251 15.525 17.3251 12.4916V5.50829C17.3334 2.47496 15.5251 0.666626 12.4917 0.666626ZM13.3834 7.29996L11.4584 9.78329C11.2167 10.0916 10.8751 10.2916 10.4834 10.3333C10.0917 10.3833 9.70841 10.275 9.40008 10.0333L7.87508 8.83329C7.81675 8.78329 7.75008 8.78329 7.71675 8.79163C7.68341 8.79163 7.62508 8.80829 7.57508 8.87496L5.59175 11.45C5.46675 11.6083 5.28341 11.6916 5.10008 11.6916C4.96675 11.6916 4.83341 11.65 4.71675 11.5583C4.44175 11.35 4.39175 10.9583 4.60008 10.6833L6.58342 8.10829C6.82508 7.79996 7.16675 7.59996 7.55841 7.54996C7.94175 7.49996 8.33341 7.60829 8.64175 7.84996L10.1667 9.04996C10.2251 9.09996 10.2834 9.09996 10.3251 9.09163C10.3584 9.09163 10.4167 9.07496 10.4667 9.00829L12.3917 6.52496C12.6001 6.24996 13.0001 6.19996 13.2667 6.41663C13.5417 6.64163 13.5917 7.03329 13.3834 7.29996Z" fill="#929EAE"/>
</svg>
